<svg xmlns="http://www.w3.org/2000/svg" width="5504.617" height="1331.534" viewBox="0 0 5504.617 1331.534">
  <g id="logo" transform="translate(0 -0.311)">
    <g id="Group_162" data-name="Group 162" transform="translate(0 0.311)">
      <path id="Path_318" data-name="Path 318" d="M970.2,1331.844H361.329C161.773,1331.844,0,1170.072,0,970.513V361.642C0,162.084,161.773.311,361.329.311H970.2c199.557,0,361.331,161.773,361.331,361.329V970.513C1331.534,1170.072,1169.761,1331.844,970.2,1331.844Z" transform="translate(0 -0.311)" fill="#dc4242"/>
      <g id="Group_161" data-name="Group 161" transform="translate(121.085 296.691)">
        <g id="Group_158" data-name="Group 158">
          <path id="Path_319" data-name="Path 319" d="M299.769,16.446C136.641,16.446,4.4,148.687,4.4,311.816S136.64,607.185,299.769,607.185s295.37-132.241,295.37-295.369S462.9,16.446,299.769,16.446Zm0,467.012A171.643,171.643,0,1,1,471.412,311.815,171.642,171.642,0,0,1,299.769,483.458Z" transform="translate(-4.399 130.967)" fill="#fff"/>
          <rect id="Rectangle_200" data-name="Rectangle 200" width="402.432" height="112.542" transform="translate(101.489 485.138) rotate(-30)" fill="#fff"/>
          <g id="Group_157" data-name="Group 157" transform="translate(455.753)">
            <path id="Path_320" data-name="Path 320" d="M186.91,94.066V646.22A82.976,82.976,0,0,1,103.935,729.2h0A82.976,82.976,0,0,1,20.959,646.22V94.066A82.976,82.976,0,0,1,103.934,11.09h0A82.974,82.974,0,0,1,186.91,94.066Z" transform="translate(-20.958 -11.09)" fill="#fff"/>
          </g>
        </g>
        <g id="Group_160" data-name="Group 160" transform="translate(661.553 95.51)">
          <g id="Group_159" data-name="Group 159">
            <path id="Path_321" data-name="Path 321" d="M236.207,429.081,28.436,221.82,236.208,14.56H456.246L247.451,221.82l208.794,207.26Z" transform="translate(-28.436 -14.56)" fill="#fff"/>
          </g>
          <path id="Path_322" data-name="Path 322" d="M28.436,22.091H248.474l207.749,207.26L248.474,436.611H28.436l208.771-207.26Z" transform="translate(-28.425 185.169)" fill="#fff"/>
        </g>
      </g>
    </g>
    <g id="Group_166" data-name="Group 166" transform="translate(1545.05 202.153)">
      <g id="Group_163" data-name="Group 163" transform="translate(1593.477 0.001)">
        <path id="Path_323" data-name="Path 323" d="M139.009,241.929q24.959-46.636,68.679-71.986,43.7-25.341,98.8-25.341,52.9,0,95.5,25.705,42.591,25.724,62.437,66.847V7.964h51.429v543.6H464.424V461.943q-18.37,41.866-60.232,68.679-41.866,26.831-98.439,26.817-55.083,0-98.795-25.715-43.725-25.7-68.323-72.724-24.617-46.992-24.6-108.718Q114.052,288.586,139.009,241.929ZM444.6,265.805q-19.833-36.713-53.99-56.56t-75.3-19.837q-42.6,0-76.4,19.1t-53.252,55.466q-19.477,36.358-19.473,86.311,0,49.219,19.473,86.32,19.45,37.1,53.252,56.559t76.4,19.464q41.141,0,75.3-19.828T444.6,436.23q19.833-36.727,19.828-85.208T444.6,265.805Z" transform="translate(-114.032 0.847)" fill="#fff"/>
        <path id="Path_324" data-name="Path 324" d="M516.968,239.176H184.2q2.214,45.556,22.042,77.873T258.4,365.9q32.312,16.525,70.52,16.53,49.944,0,84.105-24.247T458.2,292.8h54.363q-14.707,58.788-62.811,95.87-48.126,37.1-120.837,37.1-56.574,0-101.374-25.341-44.819-25.355-70.155-72T132.049,219.348q0-62.437,24.977-109.456,24.958-47.005,69.781-71.986,44.8-24.972,102.112-24.977t100.27,24.977q42.974,24.972,66.109,67.212t23.145,93.664Q518.419,225.215,516.968,239.176Zm-68.7-118.267a121.624,121.624,0,0,0-51.055-47.748Q364.876,57.019,326.7,57.006q-57.3,0-97.7,36.722-40.4,36.74-44.814,103.578H466.267Q467.016,152.515,448.271,120.91Z" transform="translate(363.811 132.521)" fill="#fff"/>
        <path id="Path_325" data-name="Path 325" d="M197.5,393.81q-43.725-31.956-48.85-87.049h52.887q3.663,33.8,31.957,54.728,28.266,20.94,76.023,20.94,41.879,0,65.754-19.837t23.874-49.215q0-20.557-13.231-33.8-13.231-13.217-33.424-20.931t-54.718-16.53q-44.819-11.741-72.725-23.509a123.661,123.661,0,0,1-47.383-34.891q-19.478-23.14-19.464-62.073,0-29.373,17.623-54.364,17.632-24.958,49.953-39.665,32.325-14.68,73.463-14.689,64.624,0,104.3,32.686,39.693,32.695,42.609,89.992H394.733q-2.214-35.264-27.555-56.933T297.77,57Q258.816,57,234.6,75.366q-24.248,18.37-24.248,45.543,0,23.523,14.325,38.572t35.629,23.5q21.3,8.461,57.289,18.735,43.356,11.754,69.052,22.771a119.805,119.805,0,0,1,44.085,32.321q18.343,21.323,19.1,56.569,0,32.325-17.642,57.662-17.6,25.341-49.206,40.039-31.6,14.68-72.734,14.689Q241.242,425.768,197.5,393.81Z" transform="translate(804.106 132.519)" fill="#fff"/>
        <path id="Path_326" data-name="Path 326" d="M173.713,72.286Q162.7,61.27,162.687,45.1q0-16.142,11.026-26.808a38.148,38.148,0,0,1,52.887,0Q237.617,28.944,237.608,45.1T226.6,72.286a37.245,37.245,0,0,1-52.887,0Zm52.156,86.686V560.055H174.458V158.972Z" transform="translate(1176.445 -7.644)" fill="#fff"/>
        <path id="Path_327" data-name="Path 327" d="M458.524,39.372q41.88,26.448,60.232,66.847V18.806h51.429V430.177q0,55.083-23.874,97.7a165.4,165.4,0,0,1-66.483,65.745q-42.618,23.14-96.972,23.136-77.117,0-128.173-36.731t-63.548-99.9h50.682q13.23,41.866,50.318,66.847,37.1,24.958,90.721,24.977,38.954,0,69.8-16.53t48.477-48.85q17.633-32.34,17.623-76.4V331q-19.109,41.155-60.6,67.95-41.5,26.831-98.065,26.817-55.083,0-98.795-25.715-43.738-25.7-68.324-72.725-24.63-46.992-24.6-108.718,0-61.7,24.6-108.353Q217.58,63.62,261.3,38.27q43.684-25.341,98.795-25.341Q416.666,12.927,458.524,39.372Zm40.4,94.759q-19.819-36.713-53.981-56.56t-75.3-19.837q-42.618,0-76.4,19.1T240,132.3Q220.5,168.657,220.513,218.61q0,49.22,19.482,86.32,19.436,37.1,53.252,56.559,33.788,19.477,76.4,19.464,41.142,0,75.3-19.828,34.143-19.833,53.981-56.569t19.828-85.208Q518.756,170.867,498.928,134.131Z" transform="translate(1327.242 132.521)" fill="#fff"/>
        <path id="Path_328" data-name="Path 328" d="M492.822,57.325q45.536,44.447,45.551,128.918V421.31H487.69V192.12q0-65.375-32.694-99.906T365.75,57.688q-58.036,0-92.562,36.731T238.654,202.4V421.31H187.242V20.229h51.411V88.543a131.284,131.284,0,0,1,55.11-56.2Q329.739,12.884,375.3,12.875,447.3,12.874,492.822,57.325Z" transform="translate(1827.718 131.099)" fill="#fff"/>
      </g>
      <g id="Group_164" data-name="Group 164" transform="translate(25.898 638.01)">
        <path id="Path_329" data-name="Path 329" d="M85,231.052q-24.98-16.571-27.918-45.134H87.31Q89.4,203.442,105.568,214.3t43.462,10.854q23.929,0,37.577-10.289t13.648-25.519a22.6,22.6,0,0,0-7.558-17.515,54.647,54.647,0,0,0-19.1-10.853,321.636,321.636,0,0,0-31.283-8.577q-25.622-6.088-41.565-12.186a70.72,70.72,0,0,1-27.081-18.089Q62.53,110.13,62.535,89.941q0-15.235,10.078-28.183t28.55-20.569q18.473-7.624,41.983-7.624,36.945,0,59.629,16.951,22.66,16.955,24.348,46.661H197.736a39.218,39.218,0,0,0-15.749-29.516Q167.5,56.423,142.309,56.419q-22.266,0-36.108,9.521Q92.34,75.47,92.349,89.553q0,12.2,8.181,20A56.957,56.957,0,0,0,120.9,121.742q12.169,4.381,32.742,9.706,24.776,6.1,39.474,11.815a68.442,68.442,0,0,1,25.194,16.757q10.491,11.052,10.914,29.322a47.816,47.816,0,0,1-10.078,29.9Q209.064,232.376,191.015,240t-41.565,7.615Q109.98,247.612,85,231.052Z" transform="translate(-57.077 41.846)" fill="#fff"/>
        <path id="Path_330" data-name="Path 330" d="M126.211,106.43v129.12q0,19.046,7.976,26.278t28.132,7.236h26.867v22.854H157.7q-31.079,0-46.186-13.139T96.4,235.549V106.43H64.491V83.964H96.4V31.78h29.814V83.964h62.975V106.43Z" transform="translate(139.561 -5.502)" fill="#fff"/>
        <path id="Path_331" data-name="Path 331" d="M271.4,33.676V241.628H242.01V205.062q-10.082,19.43-31.069,29.71t-47.022,10.28q-41.162,0-67.187-23.039T70.7,155.172V33.676H99.678V152.128q0,33.9,18.677,51.8t51.02,17.9q33.165,0,52.9-19.042T242.01,146.79V33.677H271.4Z" transform="translate(304.234 44.788)" fill="#fff"/>
        <path id="Path_332" data-name="Path 332" d="M94.215,152.3a97.268,97.268,0,0,1,39.26-37.325q24.98-13.143,56.478-13.148,30.233,0,54.58,13.333t35.69,34.66V30.991h29.386V312.833H280.222V266.367q-10.506,21.707-34.435,35.613t-56.253,13.9q-31.5,0-56.478-13.324A96.811,96.811,0,0,1,94.01,264.84q-14.08-24.367-14.066-56.367T94.215,152.3Zm174.667,12.369a77.111,77.111,0,0,0-30.855-29.322,90.911,90.911,0,0,0-43.034-10.289q-24.368,0-43.666,9.909a73.763,73.763,0,0,0-30.447,28.748q-11.118,18.861-11.128,44.755,0,25.518,11.128,44.755a74.382,74.382,0,0,0,30.447,29.33q19.3,10.086,43.666,10.086a90.9,90.9,0,0,0,43.034-10.28,77.014,77.014,0,0,0,30.855-29.33Q280.219,234,280.224,208.852,280.224,183.721,268.882,164.671Z" transform="translate(549.427 -26.419)" fill="#fff"/>
        <path id="Path_333" data-name="Path 333" d="M96.788,64.338a18.249,18.249,0,0,1-6.3-14.092,17.7,17.7,0,0,1,6.3-13.9,23.444,23.444,0,0,1,30.232,0,17.7,17.7,0,0,1,6.3,13.9,18.248,18.248,0,0,1-6.3,14.092,22.84,22.84,0,0,1-30.232,0Zm29.8,44.951V317.241H97.216V109.289Z" transform="translate(828.998 -30.825)" fill="#fff"/>
        <path id="Path_334" data-name="Path 334" d="M149.376,234.476a100.282,100.282,0,0,1-40.739-37.325q-14.912-24.182-14.9-56.561,0-32.362,15.117-56.552A101.37,101.37,0,0,1,150,46.713q26.031-13.143,58.364-13.148,32.305,0,58.559,13.148a99.557,99.557,0,0,1,41.147,37.325q14.913,24.182,14.922,56.552,0,32-15.116,56.376a100.472,100.472,0,0,1-41.575,37.51q-26.439,13.143-58.773,13.139Q175.163,247.611,149.376,234.476Zm100.132-19.423a75.527,75.527,0,0,0,31.284-28.183q11.965-18.861,11.965-46.281t-11.77-46.272a74.055,74.055,0,0,0-31.069-28.183,99.07,99.07,0,0,0-83.967,0,72.627,72.627,0,0,0-30.855,28.183q-11.556,18.848-11.556,46.272t11.556,46.281a72.89,72.89,0,0,0,30.641,28.183,93.964,93.964,0,0,0,41.789,9.327A95.228,95.228,0,0,0,249.507,215.053Z" transform="translate(915.183 41.846)" fill="#fff"/>
        <path id="Path_335" data-name="Path 335" d="M131.447,231.052q-24.98-16.571-27.918-45.134h30.233q2.1,17.524,18.268,28.378,16.138,10.853,43.443,10.854,23.929,0,37.587-10.289,13.628-10.284,13.638-25.519a22.591,22.591,0,0,0-7.548-17.515,54.729,54.729,0,0,0-19.1-10.853A321.622,321.622,0,0,0,188.76,152.4q-25.622-6.088-41.575-12.186A70.721,70.721,0,0,1,120.1,122.122q-11.118-11.992-11.128-32.181,0-15.235,10.078-28.183,10.1-12.945,28.559-20.569T189.6,33.565q36.944,0,59.629,16.951t24.357,46.661h-29.4a39.169,39.169,0,0,0-15.758-29.516Q213.954,56.423,188.76,56.419q-22.266,0-36.108,9.521Q138.791,75.47,138.8,89.553q0,12.2,8.19,20a56.867,56.867,0,0,0,20.349,12.186q12.169,4.381,32.762,9.706,24.746,6.1,39.454,11.815A68.2,68.2,0,0,1,264.75,160.02q10.505,11.052,10.914,29.322a47.759,47.759,0,0,1-10.078,29.9Q255.519,232.376,237.475,240q-18.064,7.611-41.575,7.615Q156.4,247.612,131.447,231.052Z" transform="translate(1174.952 41.846)" fill="#fff"/>
      </g>
      <g id="Group_165" data-name="Group 165">
        <path id="Path_336" data-name="Path 336" d="M446.213,245.952H124.459q3.663,59.5,40.768,92.926,37.082,33.433,89.983,33.423,43.342,0,72.36-20.2a106.86,106.86,0,0,0,40.768-53.99h72q-16.17,58.036-64.642,94.393-48.5,36.358-120.482,36.367-57.3,0-102.467-25.715-45.187-25.71-70.893-73.089-25.724-47.388-25.715-109.82T81.113,110.79q24.972-47.005,70.155-72.36T255.211,13.089q57.311,0,101.383,24.977t67.95,68.679q23.851,43.725,23.874,98.8A393.874,393.874,0,0,1,446.213,245.952Zm-83.75-120.108a109.98,109.98,0,0,0-45.907-41.871q-29.031-14.325-64.277-14.324-50.682,0-86.311,32.321Q130.32,134.309,125.19,191.6H379.366Q379.364,153.408,362.463,125.844Z" transform="translate(-56.136 136.771)" fill="#fff"/>
        <path id="Path_337" data-name="Path 337" d="M140.448,8.2V551.8H73.592V8.2Z" transform="translate(406.832 7.223)" fill="#fff"/>
        <path id="Path_338" data-name="Path 338" d="M92.979,85.508Q79.762,72.291,79.757,53.187A43.992,43.992,0,0,1,92.979,20.866Q106.209,7.649,125.3,7.644a41.961,41.961,0,0,1,31.228,13.222Q169.361,34.1,169.375,53.187q0,19.108-12.848,32.321A41.935,41.935,0,0,1,125.3,98.739Q106.188,98.738,92.979,85.508Zm64.649,78.6V566.669H90.771V164.111Z" transform="translate(570.347 -7.644)" fill="#fff"/>
        <path id="Path_339" data-name="Path 339" d="M204.367,166.121V403.394q0,29.387,12.484,41.5T260.2,457.019h49.215v56.56H249.172q-55.835,0-83.741-25.715-27.924-25.7-27.911-84.47V166.121H85.362v-55.1H137.52V9.646h66.847V111.019H309.413v55.1Z" transform="translate(719.002 45.447)" fill="#fff"/>
        <path id="Path_340" data-name="Path 340" d="M485.61,245.952H163.854q3.663,59.5,40.768,92.926Q241.7,372.311,294.6,372.3q43.342,0,72.36-20.2a106.86,106.86,0,0,0,40.768-53.99h72q-16.17,58.036-64.642,94.393-48.5,36.358-120.482,36.367-57.3,0-102.467-25.715-45.188-25.71-70.893-73.089Q95.521,282.678,95.53,220.246T120.507,110.79q24.972-47.005,70.155-72.36T294.6,13.089q57.312,0,101.382,24.977t67.95,68.679q23.852,43.725,23.874,98.8A396.009,396.009,0,0,1,485.61,245.952ZM401.857,125.844A109.977,109.977,0,0,0,355.95,83.973q-29.031-14.325-64.278-14.324-50.682,0-86.311,32.321-35.647,32.339-40.777,89.628H418.76Q418.754,153.408,401.857,125.844Z" transform="translate(988.705 136.771)" fill="#fff"/>
      </g>
    </g>
  </g>
</svg>
